<?xml version="1.0" encoding="utf-8"?>
<!-- Generator: Adobe Illustrator 23.1.1, SVG Export Plug-In . SVG Version: 6.00 Build 0)  -->
<svg version="1.1" id="Layer_1" xmlns="http://www.w3.org/2000/svg" xmlns:xlink="http://www.w3.org/1999/xlink" x="0px" y="0px"
	 viewBox="0 0 448.5 448.5" style="enable-background:new 0 0 448.5 448.5;" xml:space="preserve">
<style type="text/css">
	.st0{fill:#10AA50;}
	.st1{fill:#B8C4C2;}
	.st2{fill:#12924F;}
</style>
<title>MongoDB_Leaf_FullColor_RGB</title>
<path class="st0" d="M318.8,179.7c-23-101.5-71-128.5-83.2-147.6C229,21.7,222.2,5.9,222.2,5.9c-0.7,9-1.8,14.7-9.5,21.5
	c-15.4,13.7-80.7,67-86.2,182.3c-5.1,107.5,79,173.8,90.2,180.6c8.5,4.2,19,0.1,24-3.8C281.2,358.8,336.7,284.5,318.8,179.7"/>
<path class="st1" d="M225.7,333.1c-2.1,26.6-3.6,42.1-9,57.3c0,0,3.5,25.3,6,52.2h8.8c2.1-18.9,5.3-37.7,9.6-56.2
	C229.7,380.8,226.1,356.5,225.7,333.1z"/>
<path class="st2" d="M241,386.4L241,386.4c-11.5-5.3-14.8-30.1-15.3-53.3c2.8-38.2,3.6-76.5,2.4-114.7
	c-0.6-20.1,0.3-185.9-4.9-210.2c2.1,4.8,7.2,15.9,12.4,23.9c12.2,19.1,60.2,46.1,83.2,147.6C336.7,284.3,281.5,358.4,241,386.4z"/>
</svg>
