<?xml version="1.0" encoding="utf-8"?>
<!-- Generator: Adobe Illustrator 23.1.1, SVG Export Plug-In . SVG Version: 6.00 Build 0)  -->
<svg version="1.1" id="Layer_1" xmlns="http://www.w3.org/2000/svg" xmlns:xlink="http://www.w3.org/1999/xlink" x="0px" y="0px"
	 viewBox="0 0 110 110" style="enable-background:new 0 0 110 110;" xml:space="preserve">
<style type="text/css">
	.st0{fill:#679E63;}
</style>
<g>
	<path class="st0" d="M55.1,109.2c-1.5,0-2.9-0.4-4.2-1.1l-13.3-7.9c-2-1.1-1-1.5-0.4-1.7c2.7-0.9,3.2-1.1,6-2.7
		c0.3-0.2,0.7-0.1,1,0.1l10.2,6.1c0.4,0.2,0.9,0.2,1.2,0l39.9-23.1c0.4-0.2,0.6-0.6,0.6-1.1V31.7c0-0.5-0.2-0.9-0.6-1.1l-39.9-23
		c-0.4-0.2-0.9-0.2-1.2,0l-39.9,23c-0.4,0.2-0.6,0.7-0.6,1.1v46.1c0,0.4,0.2,0.9,0.6,1.1l11,6.2c5.9,3,9.6-0.5,9.6-4V35.6
		c0-0.6,0.5-1.2,1.2-1.2h5.1c0.6,0,1.2,0.5,1.2,1.2v45.5c0,7.9-4.3,12.5-11.8,12.5c-2.3,0-4.1,0-9.2-2.5L11,85
		c-2.6-1.5-4.2-4.3-4.2-7.3v-46c0-3,1.6-5.8,4.2-7.3L50.9,1.3c2.5-1.4,5.9-1.4,8.4,0l39.9,23.1c2.6,1.5,4.2,4.3,4.2,7.3v46.1
		c0,3-1.6,5.8-4.2,7.3l-39.9,23.1C58,108.8,56.6,109.2,55.1,109.2z"/>
	<path class="st0" d="M67.4,77.5c-17.5,0-21.1-8-21.1-14.8c0-0.6,0.5-1.2,1.2-1.2h5.2c0.6,0,1.1,0.4,1.1,1c0.8,5.3,3.1,7.9,13.7,7.9
		c8.4,0,12-1.9,12-6.4c0-2.6-1-4.5-14.1-5.8C54.5,57.1,47.7,54.7,47.7,46c0-8.1,6.8-12.9,18.2-12.9c12.8,0,19.1,4.4,19.9,14
		c0,0.3-0.1,0.6-0.3,0.9c-0.2,0.2-0.5,0.4-0.8,0.4h-5.2c-0.5,0-1-0.4-1.1-0.9c-1.2-5.5-4.3-7.3-12.5-7.3c-9.2,0-10.3,3.2-10.3,5.6
		c0,2.9,1.3,3.8,13.7,5.4c12.3,1.6,18.1,3.9,18.1,12.5C87.4,72.5,80.1,77.5,67.4,77.5z"/>
</g>
</svg>
